<svg width="14" height="14" viewBox="0 0 14 14" fill="none" xmlns="http://www.w3.org/2000/svg">
<path d="M5.53334 5.49492L2.98 10.9816L8.46667 8.42826L11.02 2.94159L5.53334 5.49492ZM7.72 7.47492C7.58 7.66826 7.38 7.79492 7.14667 7.83492C7.1 7.84159 7.04667 7.84826 7 7.84826C6.81334 7.84826 6.64 7.79492 6.48667 7.68159C6.29334 7.54159 6.16667 7.34159 6.12667 7.10826C6.08667 6.87492 6.14 6.63492 6.28 6.44826C6.42 6.25492 6.62 6.12826 6.85334 6.08826C7.08667 6.04826 7.32 6.10159 7.51334 6.24159C7.70667 6.38159 7.83334 6.58159 7.87334 6.81492C7.91334 7.04826 7.86 7.28159 7.72 7.47492ZM7 0.961589C10.3067 0.961589 13 3.65492 13 6.96159C13 10.2683 10.3067 12.9616 7 12.9616C3.69334 12.9616 1 10.2683 1 6.96159C1 3.65492 3.69334 0.961589 7 0.961589ZM7 0.294922C3.32 0.294922 0.333336 3.28159 0.333336 6.96159C0.333336 10.6416 3.32 13.6283 7 13.6283C10.68 13.6283 13.6667 10.6416 13.6667 6.96159C13.6667 3.28159 10.68 0.294922 7 0.294922Z" fill="white"/>
</svg>
