<svg width="21" height="19" viewBox="0 0 21 19" fill="none" xmlns="http://www.w3.org/2000/svg">
<path d="M6.33333 8.43913H6.34375M10.5 8.43913H10.5104M14.6667 8.43913H14.6771M19.875 17.8141L16.4122 16.0827C16.1497 15.9514 16.0184 15.8858 15.8808 15.8395C15.7587 15.7985 15.633 15.7688 15.5054 15.7509C15.3617 15.7308 15.2149 15.7308 14.9215 15.7308H4.45833C3.29155 15.7308 2.70817 15.7308 2.26252 15.5037C1.87051 15.304 1.5518 14.9853 1.35207 14.5933C1.125 14.1477 1.125 13.5642 1.125 12.3975V4.48079C1.125 3.31401 1.125 2.73063 1.35207 2.28498C1.5518 1.89297 1.87051 1.57426 2.26252 1.37453C2.70817 1.14746 3.29156 1.14746 4.45833 1.14746H16.5417C17.7084 1.14746 18.2919 1.14746 18.7375 1.37453C19.1295 1.57426 19.4482 1.89297 19.6479 2.28498C19.875 2.73063 19.875 3.31402 19.875 4.48079V17.8141Z" stroke="white" stroke-width="1.3" stroke-linecap="round" stroke-linejoin="round"/>
</svg>
