<svg width="16" height="21" viewBox="0 0 16 21" fill="none" xmlns="http://www.w3.org/2000/svg">
<path d="M6 18.9809H10C10 20.0809 9.1 20.9809 8 20.9809C6.9 20.9809 6 20.0809 6 18.9809ZM16 16.3309V17.9809H0V16.3309L2 14.4509V9.30087C2 6.38087 3.56 4.08087 6 3.32087V2.94087C6 1.52087 7.49 0.440872 8.99 1.18087C9.64 1.50087 10 2.21087 10 2.94087V3.33087C12.44 4.08087 14 6.39087 14 9.31087V14.4609L16 16.3309ZM15 16.7509L13 14.8709V9.40087C13 6.93087 11.81 5.04087 9.87 4.30087C8.61 3.77087 7.23 3.80087 6.03 4.33087C4.15 5.09087 3 6.97087 3 9.40087V14.8709L1 16.7509V16.9809H15V16.7509Z" fill="white"/>
</svg>
