<svg width="18" height="19" viewBox="0 0 18 19" fill="none" xmlns="http://www.w3.org/2000/svg">
<path d="M17.87 18.1508L12.28 12.5608C13.35 11.3308 14 9.73083 14 7.98083C14 4.11084 10.87 0.980835 7 0.980835C3.13 0.980835 0 4.11084 0 7.98083C0 11.8508 3.13 14.9808 7 14.9808C8.75 14.9808 10.35 14.3308 11.58 13.2708L17.17 18.8608L17.87 18.1508ZM7 13.9808C3.69 13.9808 1 11.2908 1 7.98083C1 4.67084 3.69 1.98083 7 1.98083C10.31 1.98083 13 4.67084 13 7.98083C13 11.2908 10.31 13.9808 7 13.9808Z" fill="white"/>
</svg>
