<svg width="72" height="28" viewBox="0 0 72 28" fill="none" xmlns="http://www.w3.org/2000/svg">
<path d="M10.01 26.91C10.09 26.83 10.1833 26.7 10.29 26.52C10.4033 26.34 10.5167 26.1467 10.63 25.94C10.75 25.7267 10.86 25.52 10.96 25.32C11.0667 25.1133 11.15 24.9433 11.21 24.81C11.31 24.5033 11.4033 24.2167 11.49 23.95C11.5833 23.6767 11.6633 23.4133 11.73 23.16C11.7967 22.9 11.8467 22.6467 11.88 22.4C11.92 22.1467 11.94 21.8833 11.94 21.61C11.94 21.27 11.9033 20.9133 11.83 20.54C11.7633 20.16 11.6667 19.7833 11.54 19.41C11.42 19.03 11.28 18.66 11.12 18.3C10.96 17.94 10.79 17.61 10.61 17.31C10.6033 17.2967 10.5867 17.2767 10.56 17.25C10.5333 17.2167 10.5033 17.1867 10.47 17.16C10.4367 17.1267 10.4033 17.0967 10.37 17.07C10.3433 17.0433 10.3233 17.0233 10.31 17.01C10.2967 17.0033 10.2667 16.9933 10.22 16.98C10.18 16.9667 10.1333 16.9533 10.08 16.94C10.0267 16.9267 9.97667 16.9133 9.93 16.9C9.88333 16.8867 9.85667 16.8767 9.85 16.87C9.78333 16.83 9.72667 16.7733 9.68 16.7C9.63333 16.6267 9.6 16.55 9.58 16.47C9.56667 16.39 9.56667 16.3133 9.58 16.24C9.6 16.1667 9.64 16.1067 9.7 16.06H7.11C7.10333 16.06 7.07333 16.04 7.02 16C6.97333 15.96 6.93667 15.93 6.91 15.91C6.89667 15.8967 6.87667 15.88 6.85 15.86C6.82333 15.8333 6.81 15.8167 6.81 15.81C6.79667 15.79 6.77667 15.7433 6.75 15.67C6.73 15.59 6.71667 15.5367 6.71 15.51C6.69 15.5167 6.65667 15.53 6.61 15.55C6.56333 15.57 6.51333 15.59 6.46 15.61C6.40667 15.63 6.35667 15.65 6.31 15.67C6.26333 15.69 6.23 15.7033 6.21 15.71C6.18333 15.7233 6.14333 15.7433 6.09 15.77C6.04333 15.79 6.01667 15.8033 6.01 15.81C6.01 15.81 6.00667 15.8167 6 15.83C6 15.8433 6 15.8533 6 15.86C6 15.8667 6 15.8767 6 15.89C6.00667 15.8967 6.01 15.9033 6.01 15.91C6.04333 15.9433 6.10333 16.0033 6.19 16.09C6.27667 16.17 6.36667 16.26 6.46 16.36C6.56 16.4533 6.65 16.5433 6.73 16.63C6.81667 16.7167 6.87667 16.7767 6.91 16.81C6.91667 16.8233 6.93667 16.85 6.97 16.89C7.01 16.93 7.05 16.9767 7.09 17.03C7.13667 17.0833 7.18 17.1367 7.22 17.19C7.26 17.2433 7.29 17.2833 7.31 17.31L7.51 17.61C7.52333 17.63 7.54333 17.6633 7.57 17.71C7.60333 17.7567 7.63333 17.8067 7.66 17.86C7.69333 17.9133 7.72333 17.9633 7.75 18.01C7.77667 18.0567 7.79667 18.09 7.81 18.11C7.82333 18.13 7.85333 18.1867 7.9 18.28C7.94667 18.3667 7.99667 18.4633 8.05 18.57C8.11 18.67 8.16333 18.7633 8.21 18.85C8.26333 18.9367 8.29667 18.99 8.31 19.01C8.33 19.0367 8.37 19.0833 8.43 19.15C8.49667 19.2167 8.56667 19.2867 8.64 19.36C8.71333 19.4333 8.78333 19.5033 8.85 19.57C8.92333 19.6367 8.97667 19.6833 9.01 19.71C9.01667 19.7167 9.05667 19.7333 9.13 19.76C9.21 19.78 9.27 19.7967 9.31 19.81H9.41C9.42333 19.8033 9.45667 19.7867 9.51 19.76C9.56333 19.7267 9.59667 19.71 9.61 19.71C9.56333 19.71 9.58333 19.6967 9.67 19.67C9.75667 19.6367 9.87667 19.6433 10.03 19.69C10.05 19.6967 10.0767 19.71 10.11 19.73C10.15 19.75 10.19 19.7733 10.23 19.8C10.27 19.82 10.3067 19.8433 10.34 19.87C10.3733 19.89 10.3967 19.9033 10.41 19.91C10.49 19.9833 10.5933 20.08 10.72 20.2C10.8467 20.32 10.9667 20.44 11.08 20.56C11.2 20.6733 11.3 20.7767 11.38 20.87C11.4667 20.9567 11.51 21.0033 11.51 21.01C11.51 21.0367 11.5033 21.0567 11.49 21.07C11.4767 21.0833 11.47 21.1033 11.47 21.13C11.4567 21.13 11.43 21.13 11.39 21.13C11.35 21.13 11.3233 21.1233 11.31 21.11C11.2967 21.1033 11.27 21.0867 11.23 21.06C11.1967 21.0333 11.1567 21.0033 11.11 20.97C11.0633 20.93 11.02 20.8967 10.98 20.87C10.94 20.8367 10.9167 20.8167 10.91 20.81L10.71 20.71C10.71 20.71 10.6967 20.71 10.67 20.71C10.6433 20.7033 10.6233 20.7 10.61 20.7C10.5967 20.7 10.5767 20.7033 10.55 20.71C10.53 20.71 10.5167 20.71 10.51 20.71C10.5167 20.7367 10.53 20.79 10.55 20.87C10.5767 20.9433 10.5967 20.99 10.61 21.01L10.81 21.41L11.21 21.91C11.2233 21.93 11.2433 21.9667 11.27 22.02C11.2967 22.0667 11.31 22.0967 11.31 22.11C11.31 22.1167 11.31 22.14 11.31 22.18C11.31 22.2133 11.31 22.2533 11.31 22.3C11.3167 22.3467 11.32 22.3967 11.32 22.45C11.32 22.4967 11.32 22.5333 11.32 22.56C11.32 22.5933 11.32 22.6333 11.32 22.68C11.32 22.7267 11.3167 22.7733 11.31 22.82C11.31 22.8667 11.31 22.91 11.31 22.95C11.31 22.9833 11.31 23.0033 11.31 23.01C11.31 23.0167 11.2967 23.0467 11.27 23.1C11.2433 23.1467 11.2233 23.1833 11.21 23.21C11.1967 23.23 11.18 23.2567 11.16 23.29C11.14 23.3167 11.12 23.3467 11.1 23.38C11.08 23.4133 11.06 23.4433 11.04 23.47C11.0267 23.49 11.0167 23.5033 11.01 23.51L10.61 23.91L10.51 23.81C10.51 23.7833 10.5033 23.7333 10.49 23.66C10.4833 23.58 10.4733 23.4967 10.46 23.41C10.4533 23.3233 10.4433 23.2433 10.43 23.17C10.4233 23.0967 10.4167 23.0433 10.41 23.01C10.4033 22.9767 10.3867 22.91 10.36 22.81C10.34 22.71 10.3233 22.6433 10.31 22.61C10.3033 22.5967 10.2867 22.5633 10.26 22.51C10.24 22.4567 10.2233 22.4233 10.21 22.41C10.2033 22.4033 10.1833 22.39 10.15 22.37C10.1233 22.3433 10.11 22.3233 10.11 22.31C10.1167 22.2767 10.0933 22.23 10.04 22.17C9.99333 22.1033 9.93 22.04 9.85 21.98C9.77667 21.9133 9.7 21.8567 9.62 21.81C9.54 21.7567 9.47 21.7233 9.41 21.71C8.53667 20.9767 7.68 20.1733 6.84 19.3C6 18.4267 5.15667 17.53 4.31 16.61C4.29667 16.6033 4.26667 16.56 4.22 16.48C4.17333 16.4 4.13667 16.3433 4.11 16.31C4.09667 16.2967 4.07667 16.2633 4.05 16.21C4.03 16.1567 4.01667 16.1233 4.01 16.11C4.00333 16.09 3.99333 16.0667 3.98 16.04C3.96667 16.0067 3.95333 15.9733 3.94 15.94C3.93333 15.9067 3.92667 15.88 3.92 15.86C3.91333 15.8333 3.91 15.8167 3.91 15.81C3.91 15.79 3.90667 15.7533 3.9 15.7C3.9 15.64 3.9 15.5767 3.9 15.51C3.9 15.4433 3.9 15.3833 3.9 15.33C3.90667 15.27 3.91 15.23 3.91 15.21C3.89667 15.2167 3.87667 15.2333 3.85 15.26C3.83 15.28 3.81667 15.2967 3.81 15.31C3.77667 15.3433 3.73333 15.3933 3.68 15.46C3.63333 15.52 3.58333 15.5833 3.53 15.65C3.47667 15.71 3.42667 15.7667 3.38 15.82C3.34 15.8733 3.31667 15.9033 3.31 15.91C3.29667 15.9233 3.27667 15.9567 3.25 16.01C3.23 16.0567 3.21667 16.09 3.21 16.11C3.20333 16.13 3.19333 16.16 3.18 16.2C3.17333 16.2333 3.16333 16.2733 3.15 16.32C3.14333 16.36 3.13333 16.4 3.12 16.44C3.11333 16.4733 3.11 16.4967 3.11 16.51C3.11 16.5167 3.10667 16.5433 3.1 16.59C3.1 16.63 3.1 16.6567 3.1 16.67C3.1 16.69 3.1 16.72 3.1 16.76C3.10667 16.7933 3.11 16.81 3.11 16.81C3.11667 16.8233 3.13333 16.86 3.16 16.92C3.19333 16.98 3.22667 17.0433 3.26 17.11C3.29333 17.1767 3.32333 17.24 3.35 17.3C3.38333 17.36 3.40333 17.3967 3.41 17.41C3.41 17.4167 3.41333 17.4467 3.42 17.5C3.43333 17.5467 3.44 17.5833 3.44 17.61C3.44 17.6367 3.43333 17.6767 3.42 17.73C3.41333 17.7767 3.41 17.8033 3.41 17.81C3.41 17.8233 3.4 17.8567 3.38 17.91C3.36 17.9567 3.33667 18.0067 3.31 18.06C3.29 18.1133 3.27 18.1667 3.25 18.22C3.23 18.2667 3.21667 18.2967 3.21 18.31C3.19667 18.3567 3.17333 18.44 3.14 18.56C3.11333 18.6733 3.08333 18.7967 3.05 18.93C3.02333 19.0567 2.99333 19.1767 2.96 19.29C2.93333 19.4033 2.91333 19.4833 2.9 19.53C2.86667 19.5233 2.83333 19.52 2.8 19.52C2.77333 19.52 2.74333 19.5167 2.71 19.51V18.51C2.69667 18.5167 2.66333 18.5333 2.61 18.56C2.55667 18.58 2.52333 18.5967 2.51 18.61C2.49667 18.6233 2.47333 18.6467 2.44 18.68C2.41333 18.7067 2.38333 18.7367 2.35 18.77C2.31667 18.7967 2.28667 18.8267 2.26 18.86C2.23333 18.8867 2.21667 18.9033 2.21 18.91C2.19667 18.9233 2.17667 18.96 2.15 19.02C2.12333 19.08 2.09333 19.1433 2.06 19.21C2.02667 19.2767 1.99333 19.34 1.96 19.4C1.93333 19.46 1.91667 19.4967 1.91 19.51C1.89 19.5367 1.84 19.59 1.76 19.67C1.68667 19.7433 1.63667 19.79 1.61 19.81C1.59 19.8233 1.54 19.8433 1.46 19.87C1.38667 19.89 1.33667 19.9033 1.31 19.91C1.30333 19.91 1.26 19.9133 1.18 19.92C1.10667 19.92 1.05 19.92 1.01 19.92C0.97 19.92 0.91 19.92 0.83 19.92C0.756667 19.9133 0.716667 19.91 0.71 19.91C0.696667 19.91 0.65 19.8967 0.57 19.87C0.496667 19.8433 0.443333 19.8233 0.41 19.81C0.383333 19.8033 0.346667 19.79 0.3 19.77C0.26 19.7433 0.216667 19.72 0.17 19.7C0.13 19.68 0.0933333 19.6633 0.06 19.65C0.0333333 19.63 0.0166667 19.6167 0.01 19.61C0.01 19.61 0.00666667 19.6 0 19.58C0 19.5533 0 19.5333 0 19.52C0 19.5067 0 19.4867 0 19.46C0.00666667 19.4333 0.01 19.4167 0.01 19.41C0.01 19.3967 0.0233333 19.38 0.05 19.36C0.0766667 19.34 0.0966667 19.3233 0.11 19.31C0.123333 19.3033 0.146667 19.29 0.18 19.27C0.22 19.25 0.26 19.23 0.3 19.21C0.346667 19.19 0.386667 19.17 0.42 19.15C0.46 19.13 0.49 19.1167 0.51 19.11C0.516667 19.11 0.533333 19.1067 0.56 19.1C0.593333 19.0867 0.626667 19.0767 0.66 19.07C0.693333 19.0567 0.723333 19.0467 0.75 19.04C0.783333 19.0267 0.803333 19.0167 0.81 19.01C0.83 18.9967 0.863333 18.9667 0.91 18.92C0.963333 18.8667 0.996667 18.83 1.01 18.81C1.03 18.7433 1.06667 18.6233 1.12 18.45C1.17333 18.2767 1.23 18.0967 1.29 17.91C1.35667 17.7167 1.42 17.5367 1.48 17.37C1.54 17.1967 1.58333 17.0767 1.61 17.01C1.63 16.97 1.67 16.89 1.73 16.77C1.79 16.6433 1.86 16.5 1.94 16.34C2.02 16.1733 2.10667 15.9967 2.2 15.81C2.29333 15.6233 2.38 15.45 2.46 15.29C2.54667 15.1233 2.62 14.98 2.68 14.86C2.74667 14.7333 2.79 14.65 2.81 14.61C2.81 14.6033 2.81667 14.58 2.83 14.54C2.85 14.5 2.87 14.4533 2.89 14.4C2.91667 14.3467 2.94 14.2933 2.96 14.24C2.98 14.1867 2.99667 14.1433 3.01 14.11L3.31 13.31L4.21 11.31L4.41 10.81C4.43 10.7567 4.46333 10.68 4.51 10.58C4.56333 10.48 4.59667 10.4233 4.61 10.41C4.61667 10.4033 4.63333 10.3867 4.66 10.36C4.68667 10.3267 4.71667 10.2967 4.75 10.27C4.78333 10.2367 4.81333 10.2067 4.84 10.18C4.87333 10.1467 4.89667 10.1233 4.91 10.11C4.92333 10.0967 4.95667 10.0767 5.01 10.05C5.06333 10.0233 5.09667 10.01 5.11 10.01C5.11667 10.01 5.13667 10.0067 5.17 10C5.20333 9.99333 5.24333 9.98667 5.29 9.98C5.33667 9.96667 5.38333 9.95667 5.43 9.95C5.47667 9.93667 5.51667 9.93 5.55 9.93C5.71667 9.93 5.85 9.94667 5.95 9.98C6.05667 10.0133 6.17667 10.0567 6.31 10.11L6.51 10.21C6.53 10.23 6.56333 10.26 6.61 10.3C6.66333 10.3333 6.71667 10.3733 6.77 10.42C6.82333 10.46 6.87333 10.5 6.92 10.54C6.96667 10.5733 6.99667 10.5967 7.01 10.61C7.05 10.6433 7.11667 10.7067 7.21 10.8C7.31 10.8933 7.41333 10.9933 7.52 11.1C7.62667 11.2067 7.72667 11.31 7.82 11.41C7.91333 11.5033 7.97667 11.57 8.01 11.61C8.01 11.59 8.01 11.5567 8.01 11.51C8.01 11.4633 8.01 11.4133 8.01 11.36C8.01667 11.3067 8.02 11.2567 8.02 11.21C8.02 11.1633 8.02 11.13 8.02 11.11C8.02 11.0767 8.02 11.0333 8.02 10.98C8.02 10.9267 8.01667 10.8733 8.01 10.82C8.01 10.7667 8.01 10.72 8.01 10.68C8.01 10.64 8.01 10.6167 8.01 10.61C8.01 10.6033 8.00667 10.5833 8 10.55C7.99333 10.5167 7.98333 10.48 7.97 10.44C7.96333 10.3933 7.95333 10.35 7.94 10.31C7.92667 10.2633 7.91667 10.23 7.91 10.21C7.89667 10.17 7.87667 10.1067 7.85 10.02C7.82333 9.93333 7.79333 9.84333 7.76 9.75C7.72667 9.65667 7.69333 9.57 7.66 9.49C7.63333 9.40333 7.61667 9.34333 7.61 9.31C7.59667 9.28333 7.57667 9.24667 7.55 9.2C7.53 9.14667 7.51667 9.11667 7.51 9.11C7.49667 9.10333 7.46 9.08667 7.4 9.06C7.34667 9.02667 7.28333 8.99333 7.21 8.96C7.14333 8.92667 7.08 8.89667 7.02 8.87C6.96 8.83667 6.92333 8.81667 6.91 8.81C6.89667 8.80333 6.87667 8.79 6.85 8.77C6.83 8.74333 6.81667 8.72333 6.81 8.71C6.79667 8.69667 6.78 8.66667 6.76 8.62C6.74 8.56667 6.72333 8.53 6.71 8.51C6.69667 8.47667 6.67667 8.42333 6.65 8.35C6.62333 8.27 6.61 8.22333 6.61 8.21C6.61 8.20333 6.60667 8.18333 6.6 8.15C6.6 8.11 6.6 8.08 6.6 8.06C6.6 8.04667 6.6 8.02333 6.6 7.99C6.60667 7.95 6.61 7.92333 6.61 7.91C6.64333 7.87667 6.69667 7.82 6.77 7.74C6.85 7.65333 6.93 7.56333 7.01 7.47C7.09667 7.37 7.17667 7.27667 7.25 7.19C7.33 7.10333 7.38333 7.04333 7.41 7.01C7.42333 6.99667 7.44 6.96333 7.46 6.91C7.48667 6.85667 7.50333 6.82333 7.51 6.81C7.51667 6.77667 7.53 6.69667 7.55 6.57C7.57 6.44333 7.59 6.30667 7.61 6.16C7.63 6.01333 7.65 5.87667 7.67 5.75C7.69 5.62333 7.70333 5.54333 7.71 5.51C7.71667 5.49667 7.73 5.46333 7.75 5.41C7.77667 5.35667 7.79667 5.32333 7.81 5.31C7.82333 5.29 7.84333 5.26667 7.87 5.24C7.90333 5.20667 7.93333 5.17333 7.96 5.14C7.99333 5.10667 8.02333 5.08 8.05 5.06C8.07667 5.03333 8.09667 5.01667 8.11 5.01C8.12333 5.00333 8.15333 4.99 8.2 4.97C8.25333 4.95 8.30667 4.93 8.36 4.91C8.41333 4.88333 8.46333 4.86333 8.51 4.85C8.56333 4.83 8.59667 4.81667 8.61 4.81L8.81 4.71C8.82333 4.69667 8.84333 4.68 8.87 4.66C8.89667 4.63333 8.91 4.61667 8.91 4.61C8.91 4.60333 8.91 4.58 8.91 4.54C8.91667 4.5 8.92 4.47 8.92 4.45C8.92 4.43 8.91667 4.40333 8.91 4.37C8.91 4.33667 8.91 4.31667 8.91 4.31C8.89667 4.27667 8.86333 4.23667 8.81 4.19C8.76333 4.13667 8.73 4.11 8.71 4.11H8.01C8.00333 4.11 7.98667 4.09667 7.96 4.07C7.94 4.04333 7.92333 4.02333 7.91 4.01L7.81 3.81C7.80333 3.80333 7.79 3.78667 7.77 3.76C7.75 3.72667 7.72667 3.69333 7.7 3.66C7.68 3.62667 7.66 3.59667 7.64 3.57C7.62 3.53667 7.61 3.51667 7.61 3.51C7.61 3.50333 7.61 3.48667 7.61 3.46C7.61 3.42667 7.61 3.39333 7.61 3.36C7.61 3.32667 7.61 3.29667 7.61 3.27C7.61 3.23667 7.61 3.21667 7.61 3.21C7.60333 3.19667 7.57 3.18 7.51 3.16C7.45667 3.14 7.42333 3.12333 7.41 3.11C7.41 3.11 7.40667 3.10667 7.4 3.1C7.4 3.08667 7.4 3.07333 7.4 3.06C7.4 3.05333 7.4 3.04333 7.4 3.03C7.40667 3.01667 7.41 3.01 7.41 3.01C7.41667 3.00333 7.43 2.98 7.45 2.94C7.47 2.9 7.49 2.85667 7.51 2.81C7.53667 2.76333 7.56 2.72333 7.58 2.69C7.6 2.65 7.61 2.62333 7.61 2.61C7.61667 2.59 7.60667 2.55667 7.58 2.51C7.55333 2.45667 7.53 2.42333 7.51 2.41C7.51 2.39 7.51 2.35333 7.51 2.3C7.51 2.24667 7.50667 2.19333 7.5 2.14C7.5 2.08 7.5 2.02333 7.5 1.97C7.5 1.91667 7.5 1.88 7.5 1.86C7.5 1.82667 7.5 1.78 7.5 1.72C7.5 1.66 7.5 1.6 7.5 1.54C7.50667 1.48 7.51 1.43 7.51 1.39C7.51 1.34333 7.51 1.31667 7.51 1.31C7.51 1.30333 7.51333 1.28333 7.52 1.25C7.52667 1.21 7.53333 1.17 7.54 1.13C7.55333 1.08333 7.56667 1.04 7.58 1C7.59333 0.960001 7.60333 0.930001 7.61 0.910001C7.61667 0.890001 7.63 0.856667 7.65 0.810001C7.67667 0.756667 7.69667 0.723333 7.71 0.710001C7.72333 0.696667 7.75333 0.663334 7.8 0.610001C7.85333 0.556667 7.89 0.523334 7.91 0.510001C7.93 0.496667 7.97667 0.463334 8.05 0.410001C8.13 0.356667 8.18333 0.323334 8.21 0.310001L8.61 0.109999C8.63 0.103333 8.65333 0.0933337 8.68 0.0800014C8.71333 0.0666674 8.74667 0.0566673 8.78 0.0500011C8.81333 0.0366672 8.84 0.0266671 8.86 0.0200009C8.88667 0.0133332 8.90333 0.00999928 8.91 0.00999928C8.91667 0.00999928 8.94 0.00999928 8.98 0.00999928C9.02 0.00999928 9.06333 0.00999928 9.11 0.00999928C9.16333 0.00333309 9.21333 0 9.26 0C9.31333 0 9.35667 0 9.39 0C9.41667 0 9.45333 0 9.5 0C9.54667 0 9.59 0.00333309 9.63 0.00999928C9.67667 0.00999928 9.71667 0.00999928 9.75 0.00999928C9.79 0.00999928 9.81 0.00999928 9.81 0.00999928C9.82333 0.00999928 9.84667 0.0199993 9.88 0.0399995C9.92 0.0533334 9.96 0.0733336 10 0.0999999C10.0467 0.12 10.0867 0.14 10.12 0.16C10.16 0.18 10.19 0.196667 10.21 0.209999C10.2233 0.223333 10.2533 0.253333 10.3 0.3C10.3467 0.34 10.3967 0.386666 10.45 0.439999C10.5033 0.493333 10.5533 0.546667 10.6 0.599999C10.6533 0.646666 10.69 0.683333 10.71 0.710001C10.7167 0.716667 10.73 0.733333 10.75 0.76C10.77 0.786666 10.79 0.816666 10.81 0.85C10.83 0.883333 10.85 0.916666 10.87 0.95C10.89 0.976667 10.9033 0.996667 10.91 1.01L11.21 1.61C11.2233 1.63 11.24 1.69333 11.26 1.8C11.2867 1.9 11.3033 1.97 11.31 2.01C11.3167 2.05 11.3267 2.11333 11.34 2.2C11.3533 2.28 11.3633 2.36333 11.37 2.45C11.3833 2.53667 11.3933 2.61333 11.4 2.68C11.4067 2.74667 11.41 2.79 11.41 2.81C11.41 2.87667 11.41 2.97667 11.41 3.11C11.4167 3.24333 11.42 3.39667 11.42 3.57C11.42 3.74333 11.42 3.92333 11.42 4.11C11.42 4.29667 11.42 4.47667 11.42 4.65C11.42 4.82333 11.4167 4.97667 11.41 5.11C11.41 5.24333 11.41 5.34333 11.41 5.41C11.4233 5.43 11.4567 5.48 11.51 5.56C11.5633 5.63333 11.5967 5.68333 11.61 5.71C11.6233 5.72333 11.64 5.75667 11.66 5.81C11.6867 5.86333 11.7033 5.89667 11.71 5.91C11.71 5.97 11.7133 6.07 11.72 6.21C11.7333 6.35 11.7433 6.5 11.75 6.66C11.7633 6.82 11.7733 6.97333 11.78 7.12C11.7933 7.26 11.8033 7.35667 11.81 7.41L11.91 8.01C11.91 8.03 11.9133 8.06 11.92 8.1C11.9333 8.13333 11.9433 8.17333 11.95 8.22C11.9633 8.26 11.9733 8.3 11.98 8.34C11.9933 8.37333 12.0033 8.39667 12.01 8.41C12.0167 8.44333 12.04 8.52 12.08 8.64C12.1267 8.75333 12.17 8.87667 12.21 9.01C12.2567 9.14333 12.3 9.27 12.34 9.39C12.38 9.51 12.4033 9.58333 12.41 9.61C12.4233 9.66333 12.45 9.77333 12.49 9.94C12.5367 10.1 12.5867 10.29 12.64 10.51C12.6933 10.73 12.75 10.9633 12.81 11.21C12.8767 11.4567 12.9367 11.69 12.99 11.91C13.0433 12.13 13.09 12.3233 13.13 12.49C13.17 12.65 13.1967 12.7567 13.21 12.81C13.2167 12.8367 13.23 12.89 13.25 12.97C13.2767 13.0433 13.2967 13.09 13.31 13.11C13.3167 13.13 13.33 13.1633 13.35 13.21C13.3767 13.25 13.4 13.2933 13.42 13.34C13.44 13.38 13.4567 13.4167 13.47 13.45C13.49 13.4833 13.5033 13.5033 13.51 13.51C13.53 13.53 13.5767 13.5867 13.65 13.68C13.73 13.7667 13.8133 13.86 13.9 13.96C13.9933 14.06 14.08 14.1567 14.16 14.25C14.24 14.3367 14.29 14.39 14.31 14.41C14.3233 14.4233 14.3433 14.4567 14.37 14.51C14.3967 14.5633 14.41 14.5967 14.41 14.61C14.41 14.61 14.41 14.6267 14.41 14.66C14.41 14.6933 14.41 14.7333 14.41 14.78C14.4167 14.82 14.42 14.8633 14.42 14.91C14.42 14.95 14.42 14.9833 14.42 15.01C14.42 15.0433 14.4167 15.11 14.41 15.21C14.41 15.31 14.41 15.3767 14.41 15.41C14.3967 15.4033 14.3767 15.39 14.35 15.37C14.33 15.3433 14.3167 15.3233 14.31 15.31C14.3033 15.3033 14.2933 15.28 14.28 15.24C14.2733 15.2 14.2633 15.1567 14.25 15.11C14.2433 15.0633 14.2367 15.0233 14.23 14.99C14.2233 14.95 14.2167 14.9233 14.21 14.91C14.2033 14.8967 14.1733 14.8667 14.12 14.82C14.0733 14.7667 14.0367 14.73 14.01 14.71C13.9833 14.69 13.94 14.6633 13.88 14.63C13.8267 14.59 13.7667 14.55 13.7 14.51C13.64 14.4633 13.58 14.4233 13.52 14.39C13.4667 14.35 13.43 14.3233 13.41 14.31C13.41 14.31 13.4033 14.31 13.39 14.31C13.3767 14.3033 13.3667 14.3 13.36 14.3C13.3533 14.3 13.3433 14.3033 13.33 14.31C13.3167 14.31 13.31 14.31 13.31 14.31C13.2833 14.33 13.23 14.38 13.15 14.46C13.0767 14.5333 13.03 14.5833 13.01 14.61C13.01 14.61 13.0067 14.6167 13 14.63C13 14.6433 13 14.6533 13 14.66C13 14.6667 13 14.6767 13 14.69C13.0067 14.6967 13.01 14.7033 13.01 14.71C13.0367 14.71 13.0867 14.7167 13.16 14.73C13.24 14.7367 13.3233 14.7467 13.41 14.76C13.4967 14.7667 13.5767 14.7767 13.65 14.79C13.7233 14.7967 13.7767 14.8033 13.81 14.81C13.8233 14.81 13.8533 14.8233 13.9 14.85C13.9533 14.8767 13.99 14.8967 14.01 14.91C14.0233 14.9233 14.0433 14.9433 14.07 14.97C14.0967 14.99 14.11 15.0033 14.11 15.01V15.81C14.11 15.8167 14.0967 15.8333 14.07 15.86C14.0433 15.88 14.0233 15.8967 14.01 15.91C13.9833 15.93 13.9433 15.96 13.89 16C13.8433 16.04 13.8167 16.06 13.81 16.06H11.22C11.2867 16.14 11.3233 16.23 11.33 16.33C11.3367 16.4233 11.3233 16.5167 11.29 16.61C11.2567 16.6967 11.2033 16.7767 11.13 16.85C11.0633 16.9167 10.99 16.97 10.91 17.01C10.93 17.03 10.9633 17.07 11.01 17.13C11.0633 17.1833 11.1167 17.2433 11.17 17.31C11.2233 17.37 11.2733 17.43 11.32 17.49C11.3667 17.5433 11.3967 17.5833 11.41 17.61C11.5367 17.83 11.65 18.0467 11.75 18.26C11.85 18.4733 11.9367 18.69 12.01 18.91C12.09 19.1233 12.16 19.3467 12.22 19.58C12.2867 19.8067 12.35 20.05 12.41 20.31C12.4167 20.3433 12.4267 20.3867 12.44 20.44C12.4533 20.4867 12.4633 20.5367 12.47 20.59C12.4833 20.6433 12.4933 20.6933 12.5 20.74C12.5067 20.78 12.51 20.8033 12.51 20.81C12.51 20.8233 12.5133 20.8633 12.52 20.93C12.5267 20.99 12.5333 21.0633 12.54 21.15C12.5467 21.23 12.5533 21.3133 12.56 21.4C12.5667 21.4867 12.57 21.5567 12.57 21.61C12.57 21.6567 12.5667 21.72 12.56 21.8C12.5533 21.8733 12.5467 21.9467 12.54 22.02C12.5333 22.0933 12.5267 22.16 12.52 22.22C12.5133 22.2733 12.51 22.3033 12.51 22.31C12.4433 22.71 12.35 23.1133 12.23 23.52C12.11 23.9267 11.9667 24.3267 11.8 24.72C11.6333 25.1133 11.45 25.4967 11.25 25.87C11.05 26.2367 10.8367 26.5833 10.61 26.91C10.81 26.9233 11.0267 26.9433 11.26 26.97C11.5 26.99 11.7367 27.0133 11.97 27.04C12.21 27.0667 12.4367 27.0967 12.65 27.13C12.8633 27.1567 13.05 27.1833 13.21 27.21C13.2967 27.23 13.4067 27.2567 13.54 27.29C13.68 27.3233 13.8133 27.3567 13.94 27.39C14.0733 27.4167 14.1833 27.4433 14.27 27.47C14.3633 27.4967 14.41 27.51 14.41 27.51V27.61H6.21V27.51C6.21 27.51 6.25333 27.4967 6.34 27.47C6.43333 27.4433 6.54333 27.4167 6.67 27.39C6.80333 27.3567 6.93667 27.3233 7.07 27.29C7.20333 27.2567 7.31667 27.23 7.41 27.21C7.42333 27.21 7.46 27.2067 7.52 27.2C7.58 27.1867 7.64667 27.1767 7.72 27.17C7.8 27.1567 7.87333 27.1467 7.94 27.14C8.01333 27.1267 8.07 27.1167 8.11 27.11C8.17667 27.1033 8.3 27.09 8.48 27.07C8.66 27.05 8.85 27.03 9.05 27.01C9.25667 26.99 9.45 26.97 9.63 26.95C9.81 26.93 9.93667 26.9167 10.01 26.91ZM10.51 11.41C10.6433 11.6233 10.7733 11.8267 10.9 12.02C11.0333 12.2067 11.2033 12.4033 11.41 12.61C11.51 12.8033 11.5467 13.0167 11.52 13.25C11.4933 13.4833 11.42 13.7033 11.3 13.91C11.18 14.11 11.0167 14.2867 10.81 14.44C10.61 14.5867 10.3767 14.6767 10.11 14.71H12.71C12.7233 14.71 12.74 14.66 12.76 14.56C12.7867 14.4533 12.8033 14.37 12.81 14.31C12.81 14.3033 12.81 14.2633 12.81 14.19C12.8167 14.11 12.82 14.0533 12.82 14.02C12.82 13.98 12.8167 13.9233 12.81 13.85C12.81 13.77 12.81 13.7233 12.81 13.71C12.81 13.6833 12.8033 13.64 12.79 13.58C12.7833 13.5133 12.7733 13.4433 12.76 13.37C12.7533 13.29 12.7433 13.2167 12.73 13.15C12.7233 13.0833 12.7167 13.0367 12.71 13.01C12.7033 12.99 12.6867 12.9433 12.66 12.87C12.64 12.79 12.6233 12.7367 12.61 12.71L12.01 11.41L11.81 10.81C11.77 10.69 11.7167 10.54 11.65 10.36C11.5833 10.18 11.5167 10.0067 11.45 9.84C11.3833 9.66667 11.3267 9.52 11.28 9.4C11.2333 9.27333 11.21 9.21 11.21 9.21H11.09C11.09 9.24333 11.09 9.31 11.09 9.41C11.0967 9.51 11.1033 9.57667 11.11 9.61C11.11 9.63 11.1133 9.66333 11.12 9.71C11.1333 9.75667 11.1433 9.80667 11.15 9.86C11.1633 9.91333 11.1733 9.96333 11.18 10.01C11.1933 10.0567 11.2033 10.09 11.21 10.11C11.2167 10.13 11.23 10.1667 11.25 10.22C11.27 10.2667 11.29 10.3167 11.31 10.37C11.33 10.4233 11.35 10.4733 11.37 10.52C11.39 10.5667 11.4033 10.5967 11.41 10.61C11.4233 10.63 11.4533 10.6667 11.5 10.72C11.5533 10.7667 11.59 10.7967 11.61 10.81C11.6033 10.8233 11.5867 10.8433 11.56 10.87C11.54 10.89 11.5233 10.9033 11.51 10.91C11.5033 10.91 11.48 10.9133 11.44 10.92C11.4067 10.92 11.38 10.92 11.36 10.92C11.3467 10.92 11.32 10.92 11.28 10.92C11.24 10.9133 11.2167 10.91 11.21 10.91C11.1967 10.91 11.1633 10.8967 11.11 10.87C11.0633 10.8433 11.03 10.8233 11.01 10.81C10.9967 10.8033 10.9767 10.79 10.95 10.77C10.93 10.7433 10.9167 10.7233 10.91 10.71V10.91L11.41 11.41H11.57C11.57 11.4167 11.58 11.4333 11.6 11.46C11.62 11.4867 11.6233 11.5033 11.61 11.51C11.5967 11.5233 11.5633 11.5433 11.51 11.57C11.4633 11.59 11.43 11.6033 11.41 11.61C11.4033 11.61 11.37 11.6133 11.31 11.62C11.2567 11.62 11.2167 11.62 11.19 11.62C11.1633 11.62 11.1267 11.62 11.08 11.62C11.0333 11.6133 11.01 11.61 11.01 11.61C10.9967 11.6033 10.97 11.5833 10.93 11.55C10.8967 11.5167 10.8567 11.48 10.81 11.44C10.77 11.4 10.73 11.36 10.69 11.32C10.6567 11.2733 10.63 11.2367 10.61 11.21C10.5967 11.1967 10.58 11.1733 10.56 11.14C10.54 11.1 10.52 11.06 10.5 11.02C10.48 10.9733 10.46 10.9333 10.44 10.9C10.4267 10.86 10.4167 10.83 10.41 10.81C10.41 10.8233 10.4067 10.85 10.4 10.89C10.4 10.9233 10.4 10.9467 10.4 10.96C10.4 10.98 10.4 11.01 10.4 11.05C10.4067 11.0833 10.41 11.1033 10.41 11.11C10.4167 11.1433 10.43 11.2 10.45 11.28C10.4767 11.3533 10.4967 11.3967 10.51 11.41ZM5.61 12.21C5.59667 12.2167 5.57667 12.2333 5.55 12.26C5.53 12.28 5.51667 12.2967 5.51 12.31C5.50333 12.33 5.49 12.3733 5.47 12.44C5.45 12.5067 5.42667 12.58 5.4 12.66C5.38 12.74 5.36 12.8133 5.34 12.88C5.32667 12.9467 5.31667 12.99 5.31 13.01C5.31 13.0167 5.3 13.0367 5.28 13.07C5.26667 13.1033 5.24667 13.1433 5.22 13.19C5.2 13.23 5.18 13.2733 5.16 13.32C5.14 13.36 5.12333 13.39 5.11 13.41L4.81 13.91C4.81 13.91 4.80667 13.9167 4.8 13.93C4.8 13.9433 4.8 13.9533 4.8 13.96C4.8 13.9667 4.8 13.9767 4.8 13.99C4.80667 13.9967 4.81 14.0033 4.81 14.01C4.83 13.99 4.86667 13.9633 4.92 13.93C4.98 13.89 5.04333 13.85 5.11 13.81C5.17667 13.7633 5.23667 13.7233 5.29 13.69C5.35 13.65 5.39 13.6233 5.41 13.61C5.43667 13.59 5.48667 13.5633 5.56 13.53C5.64 13.49 5.72333 13.45 5.81 13.41C5.89667 13.3633 5.97667 13.3233 6.05 13.29C6.12333 13.25 6.17667 13.2233 6.21 13.21C6.21 13.2033 6.21 13.19 6.21 13.17C6.21667 13.1433 6.22 13.1233 6.22 13.11C6.22 13.0967 6.21667 13.08 6.21 13.06C6.21 13.0333 6.21 13.0167 6.21 13.01C6.20333 12.9967 6.18333 12.9633 6.15 12.91C6.11667 12.8567 6.07667 12.8 6.03 12.74C5.99 12.6733 5.94667 12.61 5.9 12.55C5.86 12.49 5.83 12.4433 5.81 12.41L5.61 12.21Z" fill="white"/>
<path d="M36.5791 6.04164C36.5791 5.94789 36.5498 5.83656 36.4912 5.70766C36.4327 5.57875 36.3565 5.46156 36.2627 5.3561C36.1807 5.23891 36.0928 5.1393 35.9991 5.05727C35.9053 4.97524 35.8233 4.93422 35.753 4.93422C35.5655 4.93422 35.3604 4.99867 35.1377 5.12758C34.9268 5.25649 34.7452 5.36781 34.5928 5.46156L34.3819 5.11C34.6162 4.89906 34.8682 4.68227 35.1377 4.45961C35.419 4.23695 35.6944 4.03774 35.9639 3.86195C36.2452 3.67445 36.5147 3.52797 36.7725 3.4225C37.0303 3.30531 37.253 3.24672 37.4405 3.24672C37.8389 3.24672 38.2022 3.37563 38.5303 3.63344C38.8584 3.89125 39.1338 4.18422 39.3565 4.51235C39.5909 4.82875 39.7666 5.1393 39.8838 5.44399C40.0127 5.74867 40.0772 5.94789 40.0772 6.04164C40.0772 6.31117 39.9952 6.80922 39.8311 7.53578C39.6787 8.25063 39.4327 9.11781 39.0928 10.1373C38.753 11.1452 38.3252 12.2584 37.8096 13.4772C37.294 14.6842 36.6787 15.9147 35.9639 17.1686C35.2608 18.4225 34.4522 19.653 33.5381 20.86C32.6358 22.0553 31.6221 23.1452 30.4971 24.1295C29.3721 25.1139 28.1358 25.9459 26.7881 26.6256C25.4405 27.3053 23.9756 27.7506 22.3936 27.9616L22.0069 27.5748C22.1709 27.0709 22.3995 26.3795 22.6924 25.5006C22.9971 24.61 23.3311 23.608 23.6944 22.4948C24.0694 21.3698 24.462 20.1745 24.8721 18.9088C25.294 17.6315 25.71 16.36 26.1202 15.0944C26.5303 13.817 26.9229 12.5866 27.2979 11.403C27.6846 10.2194 28.0245 9.15297 28.3174 8.20375C28.6104 7.25453 28.8448 6.46938 29.0205 5.84828C29.208 5.21547 29.3135 4.82289 29.337 4.67055C29.337 4.54164 29.3018 4.42445 29.2315 4.31899C28.7979 4.35414 28.3702 4.40688 27.9483 4.47719C27.5264 4.5475 27.1514 4.64125 26.8233 4.75844C26.6709 4.81703 26.5069 4.91664 26.3311 5.05727C26.1553 5.18617 25.9912 5.35024 25.8389 5.54945C25.6866 5.74867 25.5577 5.97133 25.4522 6.21742C25.3584 6.4518 25.3116 6.69203 25.3116 6.93813C25.3116 7.09047 25.3233 7.28383 25.3467 7.5182C25.3702 7.74086 25.417 7.96938 25.4873 8.20375L25.2764 8.41469C24.6787 7.9811 24.2041 7.52992 23.8526 7.06117C23.501 6.5807 23.3252 6.13539 23.3252 5.72524C23.3252 5.49086 23.4014 5.23305 23.5537 4.9518C23.7178 4.67055 23.917 4.41274 24.1514 4.17836C24.3858 3.93227 24.6377 3.72719 24.9073 3.56313C25.1768 3.39906 25.417 3.31703 25.628 3.31703C26.3545 3.31703 27.1514 3.34633 28.0186 3.40492C28.8858 3.46352 29.8057 3.49281 30.7784 3.49281C30.9893 3.49281 31.1768 3.49281 31.3409 3.49281C31.5049 3.49281 31.6573 3.49281 31.7979 3.49281C31.9502 3.4811 32.1026 3.47524 32.2549 3.47524C32.4073 3.46352 32.5889 3.44594 32.7998 3.4225L32.9053 3.59828C32.6944 4.2311 32.4424 4.98695 32.1495 5.86586C31.8682 6.73305 31.5635 7.67055 31.2354 8.67836C30.9073 9.68617 30.5674 10.7467 30.2159 11.86C29.8643 12.9616 29.5127 14.069 29.1612 15.1823C28.8096 16.2838 28.4639 17.3678 28.1241 18.4342C27.7959 19.5006 27.4854 20.5026 27.1924 21.4401C26.9112 22.3659 26.6534 23.2038 26.419 23.9538C26.1846 24.7038 25.9971 25.3131 25.8565 25.7819C26.9932 25.2545 28.042 24.5163 29.003 23.567C29.9756 22.6178 30.8604 21.5514 31.6573 20.3678C32.4541 19.1725 33.1573 17.9127 33.7666 16.5885C34.376 15.2526 34.8858 13.9401 35.2959 12.651C35.7178 11.362 36.0342 10.1432 36.2452 8.99477C36.4678 7.84633 36.5791 6.86195 36.5791 6.04164Z" fill="white"/>
<path d="M44.1553 7.88735C44.4014 7.88735 44.6241 7.99281 44.8233 8.20375C45.0225 8.40297 45.1221 8.69008 45.1221 9.06508C45.1221 9.42836 45.0401 9.77992 44.876 10.1198C44.7237 10.4479 44.5303 10.7409 44.2959 10.9987C44.0616 11.2565 43.7979 11.4616 43.5049 11.6139C43.2237 11.7663 42.96 11.8424 42.7139 11.8424C42.6084 11.8424 42.4912 11.8307 42.3623 11.8073C42.2452 11.7721 42.1338 11.7135 42.0284 11.6315C41.9229 11.5377 41.835 11.4147 41.7647 11.2623C41.6944 11.11 41.6592 10.9166 41.6592 10.6823C41.6592 10.3424 41.7295 10.0084 41.8702 9.68031C42.0225 9.34047 42.2159 9.04164 42.4502 8.78383C42.6963 8.5143 42.9659 8.2975 43.2588 8.13344C43.5518 7.96938 43.8506 7.88735 44.1553 7.88735ZM43.294 14.1803C43.1651 14.3561 43.0069 14.6373 42.8194 15.0241C42.6436 15.4108 42.4502 15.8737 42.2393 16.4127C42.0284 16.9401 41.8116 17.5143 41.5889 18.1354C41.3662 18.7565 41.1436 19.3893 40.9209 20.0338C40.71 20.6666 40.5108 21.2877 40.3233 21.8971C40.1358 22.4948 39.9659 23.0455 39.8135 23.5495C39.6729 24.0416 39.5616 24.4635 39.4795 24.8151C39.3975 25.1549 39.3565 25.3776 39.3565 25.483C39.3565 25.7057 39.4444 25.817 39.6202 25.817C39.7608 25.8053 39.96 25.7409 40.2178 25.6237C40.4756 25.5065 40.7686 25.3307 41.0967 25.0963C41.4366 24.862 41.8057 24.5631 42.2041 24.1998C42.6026 23.8366 43.0127 23.403 43.4346 22.8991L43.8213 23.2506C43.3057 23.9069 42.7432 24.5163 42.1338 25.0788C41.5362 25.6295 40.9385 26.1159 40.3409 26.5377C39.7549 26.9479 39.1983 27.2702 38.6709 27.5045C38.1436 27.7389 37.7041 27.8561 37.3526 27.8561C37.2588 27.8561 37.1709 27.8209 37.0889 27.7506C37.0069 27.692 36.9366 27.6334 36.878 27.5748C36.6787 27.3405 36.5733 27.1354 36.5616 26.9596C36.5381 26.7838 36.5264 26.6022 36.5264 26.4147C36.5264 26.1452 36.6026 25.694 36.7549 25.0612C36.8955 24.4284 37.0772 23.7135 37.2998 22.9166C37.5225 22.108 37.7745 21.2643 38.0557 20.3854C38.3252 19.5065 38.5889 18.692 38.8467 17.942C39.1162 17.192 39.3565 16.5534 39.5674 16.026C39.7901 15.4987 39.96 15.1823 40.0772 15.0768C40.3116 14.8659 40.6045 14.6959 40.9561 14.567C41.3077 14.4264 41.6534 14.3209 41.9932 14.2506C42.3799 14.1686 42.7901 14.11 43.2237 14.0748L43.294 14.1803Z" fill="white"/>
<path d="M53.4014 5.8307C53.4014 5.57289 53.3311 5.39711 53.1905 5.30336C53.0616 5.19789 52.8975 5.15102 52.6983 5.16274C52.4991 5.17445 52.2823 5.22133 52.0479 5.30336C51.8135 5.37367 51.5967 5.4557 51.3975 5.54945L51.169 5.07485C52.376 4.48891 53.3545 4.07875 54.1045 3.84438C54.8662 3.61 55.3877 3.49281 55.669 3.49281C55.751 3.49281 55.8448 3.52797 55.9502 3.59828C56.0674 3.65688 56.1729 3.74477 56.2666 3.86195C56.3604 3.97914 56.4424 4.11391 56.5127 4.26625C56.583 4.40688 56.6182 4.55336 56.6182 4.7057C56.6182 4.79945 56.4834 5.19203 56.2139 5.88344C55.9444 6.56313 55.6221 7.45961 55.2471 8.57289C55.0245 9.22914 54.7784 9.94985 54.5088 10.735C54.2393 11.5202 53.9522 12.3405 53.6475 13.1959C53.3545 14.0397 53.0557 14.901 52.751 15.7799C52.458 16.6588 52.1709 17.5143 51.8897 18.3463C51.6084 19.1784 51.3389 19.9752 51.0811 20.737C50.835 21.487 50.6182 22.1608 50.4307 22.7584C50.2549 23.3561 50.1143 23.8659 50.0088 24.2877C49.9034 24.6979 49.8506 24.9791 49.8506 25.1315C49.8506 25.3424 49.9327 25.4479 50.0967 25.4479C50.2256 25.4362 50.419 25.3717 50.6768 25.2545C50.9346 25.1256 51.2276 24.9381 51.5557 24.692C51.8955 24.4459 52.2588 24.1471 52.6455 23.7955C53.044 23.4323 53.4424 23.0104 53.8409 22.5299L54.2276 22.8991C53.712 23.5202 53.1612 24.1237 52.5752 24.7096C51.9893 25.2838 51.4092 25.7936 50.835 26.2389C50.2725 26.6842 49.7393 27.0416 49.2354 27.3112C48.7432 27.5807 48.333 27.7155 48.0049 27.7155C47.8409 27.7155 47.7061 27.6452 47.6006 27.5045C47.4952 27.3522 47.4073 27.1647 47.337 26.942C47.2784 26.7194 47.2373 26.485 47.2139 26.2389C47.1905 25.9928 47.1787 25.7643 47.1787 25.5534C47.1787 25.4596 47.1905 25.3541 47.2139 25.237C47.2491 25.108 47.2842 24.9498 47.3194 24.7623C46.9327 25.1725 46.5108 25.5651 46.0537 25.9401C45.6084 26.3034 45.1748 26.6256 44.753 26.9069C44.3428 27.1764 43.9737 27.3932 43.6455 27.5573C43.3057 27.7096 43.0655 27.7858 42.9248 27.7858C42.7959 27.7858 42.6963 27.7272 42.626 27.61C42.544 27.5045 42.4854 27.3756 42.4502 27.2233C42.4034 27.0592 42.3741 26.8952 42.3623 26.7311C42.3389 26.5553 42.3272 26.403 42.3272 26.2741C42.3272 25.8639 42.3741 25.3952 42.4678 24.8678C42.5616 24.3405 42.6787 23.7955 42.8194 23.233C42.9483 22.6705 43.1006 22.1198 43.2764 21.5807C43.4405 21.0299 43.5987 20.5319 43.751 20.0866C43.9034 19.6295 44.0381 19.2487 44.1553 18.944C44.2725 18.6276 44.3545 18.4225 44.4014 18.3288C44.6123 17.8717 44.9346 17.4147 45.3682 16.9577C45.8018 16.5006 46.3116 16.0553 46.8975 15.6217C47.4834 15.1881 48.1221 14.778 48.8135 14.3913C49.5166 13.9928 50.2315 13.6354 50.958 13.319C51.2862 12.358 51.5967 11.4498 51.8897 10.5944C52.1944 9.72719 52.458 8.95961 52.6807 8.29164C52.9034 7.62367 53.0791 7.07289 53.208 6.6393C53.337 6.2057 53.4014 5.93617 53.4014 5.8307ZM47.5127 23.6198C47.7237 22.9635 47.9522 22.2604 48.1983 21.5104C48.4444 20.7487 48.6963 19.9694 48.9541 19.1725C49.2237 18.3756 49.4991 17.567 49.7803 16.7467C50.0616 15.9264 50.337 15.1178 50.6065 14.3209C50.2784 14.4147 49.9502 14.5495 49.6221 14.7252C49.3057 14.8893 49.0537 15.0416 48.8662 15.1823C48.5616 15.4166 48.251 15.8151 47.9346 16.3776C47.6299 16.9284 47.337 17.5553 47.0557 18.2584C46.7745 18.9498 46.5108 19.6705 46.2647 20.4205C46.0303 21.1705 45.8252 21.8737 45.6495 22.5299C45.4737 23.1745 45.333 23.7252 45.2276 24.1823C45.1338 24.6276 45.087 24.8913 45.087 24.9733C45.087 25.067 45.0928 25.1549 45.1045 25.237C45.128 25.3073 45.1866 25.3424 45.2803 25.3424C45.3741 25.3424 45.5088 25.2955 45.6846 25.2018C45.8604 25.108 46.0479 24.985 46.2471 24.8327C46.458 24.6686 46.6748 24.4811 46.8975 24.2702C47.1202 24.0592 47.3252 23.8424 47.5127 23.6198Z" fill="white"/>
<path d="M54.8252 27.8561C54.5674 27.8561 54.3096 27.7741 54.0518 27.61C53.794 27.4342 53.5596 27.2174 53.3487 26.9596C53.1377 26.6901 52.9678 26.3971 52.8389 26.0807C52.6983 25.7643 52.628 25.4596 52.628 25.1666C52.628 24.8151 52.6748 24.4166 52.7686 23.9713C52.8506 23.526 52.962 23.0631 53.1026 22.5827C53.2315 22.1022 53.378 21.6276 53.542 21.1588C53.7061 20.6901 53.8643 20.2623 54.0166 19.8756C54.1573 19.4772 54.2862 19.1373 54.4034 18.8561C54.5088 18.5748 54.585 18.3873 54.6319 18.2936C54.8662 17.7311 55.2295 17.1862 55.7217 16.6588C56.2256 16.1315 56.7705 15.6627 57.3565 15.2526C57.9541 14.8424 58.5518 14.5143 59.1495 14.2682C59.7588 14.0221 60.292 13.8991 60.7491 13.8991C61.1241 13.8991 61.4287 14.1041 61.6631 14.5143C61.8975 14.9245 62.0147 15.4401 62.0147 16.0612C62.0147 16.3776 61.9385 16.6881 61.7862 16.9928C61.6455 17.2975 61.458 17.5846 61.2237 17.8541C61.001 18.1237 60.7549 18.3756 60.4854 18.61C60.2276 18.8444 59.9815 19.0495 59.7471 19.2252L56.0733 22.0377C55.8623 22.8346 55.6866 23.5436 55.5459 24.1647C55.417 24.7741 55.3526 25.1901 55.3526 25.4127C55.3526 25.7526 55.3995 26.0104 55.4932 26.1862C55.587 26.362 55.7803 26.4498 56.0733 26.4498C56.6944 26.4498 57.3389 26.1452 58.0069 25.5358C58.6748 24.9147 59.3252 23.9245 59.958 22.5651L60.4678 22.8991C60.1514 23.6373 59.7823 24.3112 59.3604 24.9205C58.9502 25.5299 58.5049 26.0514 58.0245 26.485C57.544 26.9186 57.0284 27.2584 56.4776 27.5045C55.9385 27.7389 55.3877 27.8561 54.8252 27.8561ZM59.4659 14.901C59.2315 14.901 58.9795 15.0827 58.71 15.4459C58.4405 15.8092 58.1709 16.2838 57.9014 16.8698C57.6319 17.444 57.3682 18.1002 57.1104 18.8385C56.8526 19.5651 56.6182 20.2916 56.4073 21.0182L59.3955 18.6452C59.5362 18.1413 59.6651 17.6491 59.7823 17.1686C59.8995 16.6764 59.958 16.3073 59.958 16.0612C59.958 15.9323 59.9463 15.8034 59.9229 15.6745C59.9112 15.5338 59.8877 15.4049 59.8526 15.2877C59.8174 15.1705 59.7647 15.0768 59.6944 15.0065C59.6358 14.9362 59.5596 14.901 59.4659 14.901Z" fill="white"/>
<path d="M62.8584 18.4694C63.1397 17.7897 63.4854 17.1803 63.8955 16.6413C64.3057 16.0905 64.7569 15.6276 65.2491 15.2526C65.7412 14.8659 66.2627 14.5729 66.8135 14.3737C67.3643 14.1745 67.9209 14.0748 68.4834 14.0748C68.7295 14.0748 68.9991 14.1452 69.292 14.2858C69.5967 14.4147 69.878 14.5963 70.1358 14.8307C70.3936 15.0651 70.6045 15.3522 70.7686 15.692C70.9444 16.0202 71.0323 16.3834 71.0323 16.7819C71.0323 17.1217 70.9912 17.5143 70.9092 17.9596C70.8272 18.3932 70.7217 18.8444 70.5928 19.3131C70.4639 19.7702 70.3233 20.2272 70.1709 20.6842C70.0186 21.1413 69.8721 21.5631 69.7315 21.9498C69.5909 22.3248 69.462 22.6471 69.3448 22.9166C69.2393 23.1862 69.1631 23.3678 69.1162 23.4616C68.835 24.153 68.4893 24.7682 68.0791 25.3073C67.669 25.8463 67.2178 26.3092 66.7256 26.6959C66.2334 27.0709 65.712 27.358 65.1612 27.5573C64.6221 27.7565 64.0713 27.8561 63.5088 27.8561C63.2627 27.8561 62.9932 27.7916 62.7002 27.6627C62.3955 27.5338 62.1143 27.3522 61.8565 27.1178C61.5987 26.8717 61.3877 26.5846 61.2237 26.2565C61.0479 25.9284 60.96 25.5651 60.96 25.1666C60.96 24.8151 61.001 24.4225 61.083 23.9889C61.1651 23.5436 61.2705 23.0924 61.3995 22.6354C61.5284 22.1666 61.669 21.7038 61.8213 21.2467C61.9737 20.7897 62.1202 20.3737 62.2608 19.9987C62.4014 19.6237 62.5245 19.3014 62.6299 19.0319C62.7354 18.7506 62.8116 18.5631 62.8584 18.4694ZM67.7276 15.0416C67.458 15.0416 67.1651 15.2819 66.8487 15.7623C66.544 16.2311 66.2334 16.8346 65.917 17.5729C65.6123 18.3112 65.3135 19.1198 65.0205 19.9987C64.7393 20.8659 64.4873 21.7038 64.2647 22.5123C64.0537 23.3209 63.878 24.0358 63.7373 24.6569C63.6084 25.2663 63.544 25.6764 63.544 25.8873C63.544 26.2272 63.6084 26.4733 63.7373 26.6256C63.8662 26.778 64.042 26.8541 64.2647 26.8541C64.4639 26.8541 64.6748 26.7194 64.8975 26.4498C65.1202 26.1686 65.3487 25.7995 65.583 25.3424C65.8174 24.8854 66.0459 24.358 66.2686 23.7604C66.503 23.1627 66.7256 22.5475 66.9366 21.9147C67.1475 21.2702 67.3409 20.6315 67.5166 19.9987C67.7041 19.3659 67.8623 18.7799 67.9912 18.2409C68.1319 17.7018 68.2373 17.2389 68.3077 16.8522C68.3897 16.4538 68.4307 16.1784 68.4307 16.026C68.4307 15.6862 68.3662 15.4401 68.2373 15.2877C68.1084 15.1237 67.9385 15.0416 67.7276 15.0416Z" fill="white"/>
</svg>
